<?xml version="1.0" encoding="utf-8"?>
<!-- Generator: Adobe Illustrator 16.0.0, SVG Export Plug-In . SVG Version: 6.00 Build 0)  -->
<!DOCTYPE svg PUBLIC "-//W3C//DTD SVG 1.1//EN" "http://www.w3.org/Graphics/SVG/1.1/DTD/svg11.dtd">
<svg version="1.1" id="Layer_1" xmlns="http://www.w3.org/2000/svg" xmlns:xlink="http://www.w3.org/1999/xlink" x="0px" y="0px"
	 width="100px" height="100px" viewBox="0 0 100 100" enable-background="new 0 0 100 100" xml:space="preserve">
<g>
	<g>
		<path fill="#FFFFFF" d="M72.471,37.678c1.1,0,2,0.9,2,2v2.545c0,1.1-0.9,2-2,2H27.709c-1.1,0-2-0.9-2-2v-2.545c0-1.1,0.9-2,2-2
			H72.471z"/>
		
			<path fill="none" stroke="#2F3340" stroke-width="1.5" stroke-linecap="round" stroke-linejoin="round" stroke-miterlimit="10" d="
			M72.471,37.678c1.1,0,2,0.9,2,2v2.545c0,1.1-0.9,2-2,2H27.709c-1.1,0-2-0.9-2-2v-2.545c0-1.1,0.9-2,2-2H72.471z"/>
	</g>
	<g>
		<path fill="#FFFFFF" d="M72.471,55.07c1.1,0,2,0.9,2,2v2.545c0,1.1-0.9,2-2,2H27.709c-1.1,0-2-0.9-2-2V57.07c0-1.1,0.9-2,2-2
			H72.471z"/>
		
			<path fill="none" stroke="#2F3340" stroke-width="1.5" stroke-linecap="round" stroke-linejoin="round" stroke-miterlimit="10" d="
			M72.471,55.07c1.1,0,2,0.9,2,2v2.545c0,1.1-0.9,2-2,2H27.709c-1.1,0-2-0.9-2-2V57.07c0-1.1,0.9-2,2-2H72.471z"/>
	</g>
	<g>
		<path fill="#FFFFFF" d="M73.471,44.223c1.1,0,2,0.9,2,2v6.848c0,1.1-0.9,2-2,2H26.709c-1.1,0-2-0.9-2-2v-6.848c0-1.1,0.9-2,2-2
			H73.471z"/>
		
			<path fill="none" stroke="#2F3340" stroke-width="1.5" stroke-linecap="round" stroke-linejoin="round" stroke-miterlimit="10" d="
			M73.471,44.223c1.1,0,2,0.9,2,2v6.848c0,1.1-0.9,2-2,2H26.709c-1.1,0-2-0.9-2-2v-6.848c0-1.1,0.9-2,2-2H73.471z"/>
	</g>
</g>
</svg>
