<?xml version="1.0" encoding="utf-8"?>
<!-- Generator: Adobe Illustrator 16.0.0, SVG Export Plug-In . SVG Version: 6.00 Build 0)  -->
<!DOCTYPE svg PUBLIC "-//W3C//DTD SVG 1.1//EN" "http://www.w3.org/Graphics/SVG/1.1/DTD/svg11.dtd">
<svg version="1.1" id="Layer_1" xmlns="http://www.w3.org/2000/svg" xmlns:xlink="http://www.w3.org/1999/xlink" x="0px" y="0px"
	 width="100px" height="100px" viewBox="0 0 100 100" enable-background="new 0 0 100 100" xml:space="preserve">
<g>
	
		<path fill="#FFFFFF" stroke="#2F3340" stroke-width="1.5" stroke-linecap="round" stroke-linejoin="round" stroke-miterlimit="10" d="
		M61.585,32.047c0.402-0.992,0.629-2.074,0.629-3.211c0-4.719-3.826-8.543-8.543-8.543c-4.719,0-8.543,3.824-8.543,8.543
		c0,2.75,1.305,5.189,3.324,6.752c-0.404,0.992-0.631,2.074-0.631,3.211c0,4.719,3.826,8.543,8.543,8.543
		c4.719,0,8.545-3.824,8.545-8.543C64.909,36.049,63.603,33.609,61.585,32.047z"/>
	
		<path fill="#FFFFFF" stroke="#2F3340" stroke-width="1.5" stroke-linecap="round" stroke-linejoin="round" stroke-miterlimit="10" d="
		M45.128,49.227c-6.207,0-11.238-5.031-11.238-11.236c0-6.207,5.031-11.238,11.238-11.238c6.205,0,11.236,5.031,11.236,11.238"/>
	
		<polygon fill="#FFFFFF" stroke="#2F3340" stroke-width="1.5" stroke-linecap="round" stroke-linejoin="round" stroke-miterlimit="10" points="
		59.321,53.893 38.933,53.893 42.151,79 56.103,79 	"/>
	
		<polygon fill="#FFFFFF" stroke="#2F3340" stroke-width="1.5" stroke-linecap="round" stroke-linejoin="round" stroke-miterlimit="10" points="
		62.151,44.805 36.103,44.805 37.659,54.787 60.595,54.787 	"/>
</g>
</svg>
