<?xml version="1.0" encoding="utf-8"?>
<!-- Generator: Adobe Illustrator 16.0.0, SVG Export Plug-In . SVG Version: 6.00 Build 0)  -->
<!DOCTYPE svg PUBLIC "-//W3C//DTD SVG 1.1//EN" "http://www.w3.org/Graphics/SVG/1.1/DTD/svg11.dtd">
<svg version="1.1" id="Layer_1" xmlns="http://www.w3.org/2000/svg" xmlns:xlink="http://www.w3.org/1999/xlink" x="0px" y="0px"
	 width="100px" height="100px" viewBox="0 0 100 100" enable-background="new 0 0 100 100" xml:space="preserve">
<g>
	
		<path fill="#FFFFFF" stroke="#2F3340" stroke-width="1.5" stroke-linecap="round" stroke-linejoin="round" stroke-miterlimit="10" d="
		M41.447,41.096c-2.966,0-5.371-2.404-5.371-5.371c0-2.965,2.405-5.369,5.371-5.369h14.15c3.923,0,5.344-2.787,5.103-4.791
		c4.433,3.881,2.363,9.76,0.267,10.16c0,2.967-2.404,5.371-5.369,5.371H41.447z"/>
	
		<path fill="#FFFFFF" stroke="#2F3340" stroke-width="1.5" stroke-linecap="round" stroke-linejoin="round" stroke-miterlimit="10" d="
		M38.136,52.449c-4.763,0-8.623-3.861-8.623-8.627c0-4.762,3.86-8.623,8.623-8.623h22.728c4.761,0,8.624,3.861,8.624,8.623
		c0,4.766-3.863,8.627-8.624,8.627H38.136z"/>
	
		<path fill="#FFFFFF" stroke="#2F3340" stroke-width="1.5" stroke-linecap="round" stroke-linejoin="round" stroke-miterlimit="10" d="
		M70.974,48.01c0,11.859-9.613,21.475-21.474,21.475c-11.859,0-21.474-9.615-21.474-21.475H70.974z"/>
	
		<path fill="#FFFFFF" stroke="#2F3340" stroke-width="1.5" stroke-linecap="round" stroke-linejoin="round" stroke-miterlimit="10" d="
		M43.886,75.098c0,0,5.614-1.855,5.614-5.613c0,3.734,5.615,5.613,5.615,5.613H43.886z"/>
	
		<path fill="#FFFFFF" stroke="#2F3340" stroke-width="1.5" stroke-linecap="round" stroke-linejoin="round" stroke-miterlimit="10" d="
		M48.072,62.277c-2.847,0-5.423-1.152-7.29-3.016"/>
</g>
</svg>
